Coordinates
version=1
nRows=14
nColumns=40
inDegrees=yes
endheader
time	pelvis_tilt	pelvis_list	pelvis_rotation	pelvis_tx	pelvis_ty	pelvis_tz	hip_flexion_r	hip_adduction_r	hip_rotation_r	knee_angle_r	knee_angle_r_beta	ankle_angle_r	subtalar_angle_r	mtp_angle_r	hip_flexion_l	hip_adduction_l	hip_rotation_l	knee_angle_l	knee_angle_l_beta	ankle_angle_l	subtalar_angle_l	mtp_angle_l	lumbar_extension	lumbar_bending	lumbar_rotation	arm_flex_r	arm_add_r	arm_rot_r	elbow_flex_r	pro_sup_r	wrist_flex_r	wrist_dev_r	arm_flex_l	arm_add_l	arm_rot_l	elbow_flex_l	pro_sup_l	wrist_flex_l	wrist_dev_l
1760624596.00768495	      9.69912280	     14.84977800	      6.70108978	      0.15725328	      0.87746553	      0.05564439	     80.00000000	     -7.00000000	      0.00000000	     80.00000000	      1.39626340	      0.00000000	      0.00000000	      0.00000000	     80.00000000	     -7.00000000	      0.00000000	     80.00000000	      1.39626340	      0.00000000	      0.00000000	      0.00000000	    -19.33122511	    -23.96272309	     11.36764087	     -6.86635091	      2.55654294	    -21.38713234	     29.92546221	     72.42204538	    -16.69033583	      0.35523521	    -90.00000018	   -119.99999986	     90.00000018	      0.00000000	     32.65095788	    -70.00000021	    -24.99999983
1760624596.01768494	      9.67642811	     14.62738798	      6.71424915	      0.15706772	      0.87722528	      0.05902005	     80.00000000	     -7.00000000	      0.00000000	     80.00000000	      1.39626340	      0.00000000	      0.00000000	      0.00000000	     80.00000000	     -7.00000000	      0.00000000	     80.00000000	      1.39626340	      0.00000000	      0.00000000	      0.00000000	    -19.40448542	    -24.24899079	     11.29728019	     -6.65307271	      2.92380966	    -21.28907712	     29.97734292	     72.41743242	    -16.67863234	      0.36208023	    -90.00000018	   -119.99999986	     90.00000018	      0.00000000	     32.67006773	    -70.00000021	    -24.99999983
1760624596.02768493	      9.63584568	     15.94186384	      7.02610902	      0.15616673	      0.87835773	      0.05991031	     80.00000000	     -7.00000000	      0.00000000	     80.00000000	      1.39626340	      0.00000000	      0.00000000	      0.00000000	     80.00000000	     -7.00000000	      0.00000000	     80.00000000	      1.39626340	      0.00000000	      0.00000000	      0.00000000	    -20.06619906	    -25.91046710	     10.26899736	     -6.01009709	      3.20398258	    -20.82899897	     29.17851006	     72.17417694	    -16.58085218	      0.48909681	    -90.00000018	   -119.99999986	     90.00000018	      0.00000000	     33.11177747	    -70.00000021	    -24.99999983
1760624596.03768492	      9.60739395	     15.70965171	      7.04433365	      0.15596473	      0.87814519	      0.06336104	     80.00000000	     -7.00000000	      0.00000000	     80.00000000	      1.39626340	      0.00000000	      0.00000000	      0.00000000	     80.00000000	     -7.00000000	      0.00000000	     80.00000000	      1.39626340	      0.00000000	      0.00000000	      0.00000000	    -20.14100023	    -26.19053761	     10.19004214	     -5.79585014	      3.59147599	    -20.72719547	     29.23031562	     72.16469964	    -16.56461411	      0.49071888	    -90.00000018	   -119.99999986	     90.00000018	      0.00000000	     33.13205255	    -70.00000021	    -24.99999983
1760624596.04768491	      9.47143302	     16.97144578	      7.48746088	      0.15491721	      0.87923611	      0.06416612	     80.00000000	     -7.00000000	      0.00000000	     80.00000000	      1.39626340	      0.00000000	      0.00000000	      0.00000000	     80.00000000	     -7.00000000	      0.00000000	     80.00000000	      1.39626340	      0.00000000	      0.00000000	      0.00000000	    -20.80660455	    -27.76728657	      9.02828319	     -5.14485617	      3.87240709	    -20.21509561	     28.40266028	     71.80351943	    -16.37264725	      0.49499661	    -90.00000018	   -119.99999986	     90.00000018	      0.00000000	     33.65243979	    -70.00000021	    -24.99999983
1760624596.05768490	      9.44000279	     16.73339014	      7.49824280	      0.15471028	      0.87907996	      0.06771086	     80.00000000	     -7.00000000	      0.00000000	     80.00000000	      1.39626340	      0.00000000	      0.00000000	      0.00000000	     80.00000000	     -7.00000000	      0.00000000	     80.00000000	      1.39626340	      0.00000000	      0.00000000	      0.00000000	    -20.88642637	    -28.04925558	      8.95078568	     -4.92762639	      4.26973136	    -20.11317151	     28.45679897	     71.78933768	    -16.35317530	      0.49128893	    -90.00000018	   -119.99999986	     90.00000018	      0.00000000	     33.67262902	    -70.00000021	    -24.99999983
1760624596.06768489	      9.28070451	     18.00988376	      7.89648043	      0.15359661	      0.88026272	      0.06860541	     80.00000000	     -7.00000000	      0.00000000	     80.00000000	      1.39626340	      0.00000000	      0.00000000	      0.00000000	     80.00000000	     -7.00000000	      0.00000000	     80.00000000	      1.39626340	      0.00000000	      0.00000000	      0.00000000	    -21.58300147	    -29.64673269	      7.78033907	     -4.25369024	      4.54958349	    -19.56324733	     27.58544113	     71.31041090	    -16.08362858	      0.37581117	    -90.00000018	   -119.99999986	     90.00000018	      0.00000000	     34.15548640	    -70.00000021	    -24.99999983
1760624596.07768512	      9.19979674	     18.62724401	      8.09702003	      0.15291333	      0.88100788	      0.07074722	     80.00000000	     -7.00000000	      0.00000000	     80.00000000	      1.39626340	      0.00000000	      0.00000000	      0.00000000	     80.00000000	     -7.00000000	      0.00000000	     80.00000000	      1.39626340	      0.00000000	      0.00000000	      0.00000000	    -22.05085332	    -30.67568138	      7.07781811	     -3.71850621	      4.84467758	    -18.90953133	     26.93905160	     70.63525038	    -15.62686495	      0.13162535	    -90.00000018	   -119.99999986	     90.00000018	      0.00000000	     34.60460491	    -70.00000021	    -24.99999983
1760624596.08768511	      9.16123768	     18.37333376	      8.10409169	      0.15274526	      0.88094145	      0.07420088	     80.00000000	     -7.00000000	      0.00000000	     80.00000000	      1.39626340	      0.00000000	      0.00000000	      0.00000000	     80.00000000	     -7.00000000	      0.00000000	     80.00000000	      1.39626340	      0.00000000	      0.00000000	      0.00000000	    -22.12866996	    -30.93495843	      7.00558104	     -3.52659309	      5.22897013	    -18.82382727	     27.00085434	     70.61979086	    -15.60898834	      0.12348731	    -90.00000018	   -119.99999986	     90.00000018	      0.00000000	     34.61369534	    -70.00000021	    -24.99999983
1760624596.09768510	      8.87206687	     19.48142540	      8.58103406	      0.15139797	      0.88199805	      0.07530916	     80.00000000	     -7.00000000	      0.00000000	     80.00000000	      1.39626340	      0.00000000	      0.00000000	      0.00000000	     80.00000000	     -7.00000000	      0.00000000	     80.00000000	      1.39626340	      0.00000000	      0.00000000	      0.00000000	    -22.78760772	    -32.35765516	      5.76900582	     -2.88665971	      5.54024617	    -18.32982193	     26.29630054	     69.95015071	    -15.28221738	     -0.17050898	    -90.00000018	   -119.99999986	     90.00000018	      0.00000000	     34.86642684	    -70.00000021	    -24.99999983
1760624596.10768509	      8.83436678	     19.22862252	      8.57308722	      0.15121801	      0.88197930	      0.07879267	     80.00000000	     -7.00000000	      0.00000000	     80.00000000	      1.39626340	      0.00000000	      0.00000000	      0.00000000	     80.00000000	     -7.00000000	      0.00000000	     80.00000000	      1.39626340	      0.00000000	      0.00000000	      0.00000000	    -22.87044511	    -32.61757978	      5.69106624	     -2.69386590	      5.94436770	    -18.23976967	     26.35466790	     69.93230303	    -15.26223110	     -0.17931256	    -90.00000018	   -119.99999986	     90.00000018	      0.00000000	     34.87349591	    -70.00000021	    -24.99999983
1760624596.11768508	      8.62528577	     20.44348642	      8.95048727	      0.14992276	      0.88336003	      0.07989711	     80.00000000	     -7.00000000	      0.00000000	     80.00000000	      1.39626340	      0.00000000	      0.00000000	      0.00000000	     80.00000000	     -7.00000000	      0.00000000	     80.00000000	      1.39626340	      0.00000000	      0.00000000	      0.00000000	    -23.66650624	    -34.13409976	      4.43863631	     -2.02252282	      6.23375824	    -17.64387358	     25.55839598	     69.16108243	    -14.88010339	     -0.53236960	    -90.00000018	   -119.99999986	     90.00000018	      0.00000000	     35.08647912	    -70.00000021	    -24.99999983
1760624596.12768507	      8.58548652	     20.18505920	      8.94098610	      0.14976198	      0.88338131	      0.08338616	     80.00000000	     -7.00000000	      0.00000000	     80.00000000	      1.39626340	      0.00000000	      0.00000000	      0.00000000	     80.00000000	     -7.00000000	      0.00000000	     80.00000000	      1.39626340	      0.00000000	      0.00000000	      0.00000000	    -23.75047951	    -34.38738243	      4.35626719	     -1.83234586	      6.64043538	    -17.55483692	     25.62009803	     69.14003614	    -14.85881029	     -0.54339378	    -90.00000018	   -119.99999986	     90.00000018	      0.00000000	     35.09276346	    -70.00000021	    -24.99999983
1760624596.13768506	      8.32985830	     21.32585624	      9.40310953	      0.14837017	      0.88477224	      0.08441489	     80.00000000	     -7.00000000	      0.00000000	     80.00000000	      1.39626340	      0.00000000	      0.00000000	      0.00000000	     80.00000000	     -7.00000000	      0.00000000	     80.00000000	      1.39626340	      0.00000000	      0.00000000	      0.00000000	    -24.59510591	    -35.79043508	      3.00856353	     -1.19496253	      6.92697776	    -16.90550197	     24.89356859	     68.23849816	    -14.40705633	     -0.98538364	    -90.00000018	   -119.99999986	     90.00000018	      0.00000000	     35.31113211	    -70.00000021	    -24.99999983
